<?xml version="1.0" encoding="UTF-8" standalone="no"?>
<svg
   xmlns:dc="http://purl.org/dc/elements/1.1/"
   xmlns:cc="http://creativecommons.org/ns#"
   xmlns:rdf="http://www.w3.org/1999/02/22-rdf-syntax-ns#"
   xmlns:svg="http://www.w3.org/2000/svg"
   xmlns="http://www.w3.org/2000/svg"
   viewBox="0 0 1108.75 733.75"
   height="733.75"
   width="1108.75"
   xml:space="preserve"
   version="1.1"
   id="svg3336"><metadata
     id="metadata3342"><rdf:RDF><cc:Work
         rdf:about=""><dc:format>image/svg+xml</dc:format><dc:type
           rdf:resource="http://purl.org/dc/dcmitype/StillImage" /><dc:title></dc:title></cc:Work></rdf:RDF></metadata><defs
     id="defs3340"><clipPath
       id="clipPath3352"
       clipPathUnits="userSpaceOnUse"><path
         id="path3354"
         d="M 0,587 887,587 887,0 0,0 0,587 Z" /></clipPath></defs><g
     transform="matrix(1.25,0,0,-1.25,0,733.75)"
     id="g3344"><g
       id="g3348"><g
         clip-path="url(#clipPath3352)"
         id="g3350"><g
           transform="translate(568.5723,359.7651)"
           id="g3356"><path
             id="path3358"
             style="fill:#606163;fill-opacity:1;fill-rule:nonzero;stroke:none"
             d="m 0,0 c -13.539,9.119 -29.575,13.532 -48.115,13.243 -3.826,0 -7.799,-0.221 -11.918,-0.663 -4.125,-0.441 -8.241,-1.103 -12.36,-1.987 -6.476,-1.475 -12.878,-3.606 -19.203,-6.4 -6.329,-2.8 -12.434,-6.256 -18.316,-10.374 -4.711,-3.241 -9.346,-5.593 -13.905,-7.062 -4.565,-1.476 -8.905,-2.207 -13.021,-2.207 -8.829,0 -16.408,2.497 -22.733,7.504 -6.332,5 -10.815,10.442 -13.463,16.333 0,0.29 -0.076,0.51 -0.221,0.662 -0.151,0.145 -0.221,0.366 -0.221,0.662 -0.883,2.649 -1.545,5.297 -1.986,7.945 -0.441,2.649 -0.662,5.146 -0.662,7.504 0,5.587 0.807,10.883 2.428,15.892 1.614,5 3.311,9.559 5.076,13.684 2.056,4.117 3.896,7.504 5.517,10.152 1.615,2.649 2.277,4.263 1.987,4.855 l -0.442,0 c -1.179,0 -3.682,-1.986 -7.504,-5.959 -3.827,-3.973 -7.945,-8.904 -12.359,-14.788 -3.242,-4.71 -6.4,-9.711 -9.49,-15.008 -3.09,-5.297 -5.518,-10.746 -7.284,-16.333 -1.179,-2.945 -2.062,-5.814 -2.648,-8.607 -0.594,-2.8 -0.883,-5.518 -0.883,-8.167 l 0,-3.09 c 0,-13.836 2.869,-24.575 8.607,-32.224 5.738,-7.656 14.347,-11.332 25.823,-11.035 6.766,0 14.346,1.324 22.733,3.972 8.387,2.649 17.582,6.766 27.588,12.36 7.648,4.117 15.152,7.131 22.513,9.049 7.353,1.91 14.414,2.869 21.189,2.869 16.477,0 30.306,-4.711 41.492,-14.126 11.181,-9.421 16.774,-21.043 16.774,-34.872 0,-4.71 -0.738,-9.491 -2.207,-14.347 -1.476,-4.854 -3.828,-9.787 -7.063,-14.787 -2.357,-4.124 -5.372,-8.166 -9.049,-12.139 -3.684,-3.974 -8.022,-7.877 -13.022,-11.698 -7.359,-5.593 -15.448,-9.711 -24.277,-12.36 -8.829,-2.647 -18.1,-3.973 -27.811,-3.973 -4.124,0 -8.317,0.221 -12.581,0.663 -4.268,0.44 -8.462,1.103 -12.58,1.985 -25.441,5.528 -48.861,17.684 -70.271,36.468 -12.932,-4.054 -27.16,-8.441 -28.549,-8.866 -0.907,-0.277 -7.162,-2.23 -14.972,-4.632 3.903,-6.522 8.432,-12.782 13.591,-18.775 20.892,-24.279 47.963,-36.418 81.221,-36.418 15.595,0.297 32.292,3.685 50.1,10.153 17.803,6.47 36.122,17.215 54.957,32.224 20.894,16.478 35.756,31.927 44.583,46.349 8.83,14.416 13.244,27.368 13.244,38.846 C 20.306,-21.63 13.533,-9.125 0,0" /></g><g
           transform="translate(614.2734,450.5259)"
           id="g3360"><path
             id="path3362"
             style="fill:#f15d5d;fill-opacity:1;fill-rule:nonzero;stroke:none"
             d="m 0,0 -0.885,0 c -1.178,0 -2.799,-1.325 -4.855,-3.973 -2.063,-2.648 -4.71,-5.449 -7.946,-8.388 -3.241,-3.241 -7.213,-6.179 -11.918,-8.828 -4.709,-2.648 -10.152,-3.972 -16.332,-3.972 -5.889,0 -12.73,1.689 -20.525,5.076 -7.802,3.38 -16.407,9.491 -25.823,18.319 -7.945,7.352 -16.554,12.726 -25.822,16.111 -9.271,3.38 -18.76,5.077 -28.472,5.077 l -2.206,0 c -3.242,0 -6.478,-0.152 -9.713,-0.441 -3.241,-0.296 -6.478,-0.738 -9.71,-1.324 -17.071,-2.945 -33.549,-9.201 -49.439,-18.76 -15.892,-9.566 -29.432,-20.381 -40.611,-32.444 -10.009,-10.891 -18.319,-22.292 -24.94,-34.21 -2.701,-4.862 -5.105,-9.737 -7.243,-14.624 6.876,2.086 13.757,4.155 20.648,6.195 5.027,11.623 12.399,23.48 22.128,35.576 8.237,10.001 17.217,18.905 26.928,26.706 9.711,7.794 21.036,11.697 33.989,11.697 8.234,0 17.215,-1.986 26.927,-5.959 9.711,-3.973 20.45,-10.67 32.222,-20.084 11.182,-8.539 21.555,-14.644 31.121,-18.319 9.561,-3.683 18.463,-5.518 26.706,-5.518 11.479,0 21.555,2.717 30.238,8.167 8.677,5.441 15.812,11.401 21.409,17.877 5,5.586 8.675,10.814 11.034,15.67 2.354,4.856 3.531,8.015 3.531,9.491 l 0,0.662 C 0.441,-0.076 0.289,0 0,0" /></g><g
           transform="translate(538.3301,180.0303)"
           id="g3364"><path
             id="path3366"
             style="fill:#505ea8;fill-opacity:1;fill-rule:nonzero;stroke:none"
             d="m 0,0 c -9.961,2.241 -19.979,4.327 -30.066,6.182 -11.84,2.176 -23.779,4.008 -35.824,5.415 -4.915,0.575 -9.843,1.099 -14.797,1.514 -16.81,1.258 -33.635,1.618 -50.487,0.997 -9.648,-0.353 -19.306,-1.05 -28.973,-2.078 -1.083,-0.113 -2.166,-0.203 -3.25,-0.327 -13.796,-1.582 -27.554,-3.933 -41.211,-7.247 -13.824,-3.505 -26.744,-7.185 -40.96,-14.099 -0.324,-0.156 -0.656,-0.341 -0.995,-0.534 -6.075,-3.621 -7.9,-11.24 -4.044,-17.014 3.841,-5.777 11.887,-7.525 17.978,-3.894 l 0.556,0.336 c 9.372,5.585 22.052,10.662 34.033,14.599 12.134,3.987 24.7,7.169 37.467,9.663 0.114,0.021 0.228,0.05 0.342,0.072 9.409,1.82 18.952,3.297 28.564,4.445 16.686,1.996 33.589,2.994 50.414,2.995 5.367,-0.046 10.743,-0.224 16.125,-0.469 11.716,-0.533 23.458,-1.488 35.192,-2.779 9.588,-1.053 19.17,-2.309 28.728,-3.719 26.645,-3.987 53.155,-9.072 79.4,-15.406 C 52.538,-13.078 26.447,-6.015 0,0" /></g></g></g></g></svg>